<?xml version="1.0" encoding="UTF-8"?>
    <svg viewBox="-10 -80 300 300" xmlns="http://www.w3.org/2000/svg" version="1.1">
        <style> .t { font: italic 6px sans-serif; } </style>
            <circle cx="0" cy="0" r="8" stroke="black" fill="transparent"/>
    <text x="0" y="0.5" class="t" alignment-baseline="middle" text-anchor="middle">10</text>

    <circle cx="10" cy="17" r="8" stroke="black" fill="transparent"/>
    <text x="10" y="17.5" class="t" alignment-baseline="middle" text-anchor="middle">23</text>

    <circle cx="20" cy="35" r="8" stroke="black" fill="transparent"/>
    <text x="20" y="35.5" class="t" alignment-baseline="middle" text-anchor="middle">35</text>

    <circle cx="30" cy="52" r="8" stroke="black" fill="transparent"/>
    <text x="30" y="52.5" class="t" alignment-baseline="middle" text-anchor="middle">46</text>

    <circle cx="40" cy="69" r="8" stroke="black" fill="transparent"/>
    <text x="40" y="69.5" class="t" alignment-baseline="middle" text-anchor="middle">56</text>

    <circle cx="50" cy="87" r="8" stroke="black" fill="transparent"/>
    <text x="50" y="87.5" class="t" alignment-baseline="middle" text-anchor="middle">66</text>

    <circle cx="60" cy="104" r="8" stroke="black" fill="transparent"/>
    <text x="60" y="104.5" class="t" alignment-baseline="middle" text-anchor="middle">77</text>

    <circle cx="70" cy="121" r="8" stroke="black" fill="transparent"/>
    <text x="70" y="121.5" class="t" alignment-baseline="middle" text-anchor="middle">89</text>

    <circle cx="80" cy="139" r="8" stroke="black" fill="transparent"/>
    <text x="80" y="139.5" class="t" alignment-baseline="middle" text-anchor="middle">102</text>

    <circle cx="90" cy="156" r="8" stroke="black" fill="transparent"/>
    <text x="90" y="156.5" class="t" alignment-baseline="middle" text-anchor="middle">111</text>

    <circle cx="100" cy="173" r="8" stroke="black" fill="transparent"/>
    <text x="100" y="173.5" class="t" alignment-baseline="middle" text-anchor="middle">115</text>

    <circle cx="110" cy="191" r="8" stroke="black" fill="transparent"/>
    <text x="110" y="191.5" class="t" alignment-baseline="middle" text-anchor="middle">118</text>

    <circle cx="120" cy="208" r="8" stroke="black" fill="transparent"/>
    <text x="120" y="208.5" class="t" alignment-baseline="middle" text-anchor="middle">120</text>

    <circle cx="20" cy="0" r="8" stroke="black" fill="transparent"/>
    <text x="20" y="0.5" class="t" alignment-baseline="middle" text-anchor="middle">11</text>

    <circle cx="30" cy="17" r="8" stroke="black" fill="transparent"/>
    <text x="30" y="17.5" class="t" alignment-baseline="middle" text-anchor="middle">24</text>

    <circle cx="40" cy="35" r="8" stroke="black" fill="transparent"/>
    <text x="40" y="35.5" class="t" alignment-baseline="middle" text-anchor="middle">36</text>

    <circle cx="50" cy="52" r="8" stroke="black" fill="transparent"/>
    <text x="50" y="52.5" class="t" alignment-baseline="middle" text-anchor="middle">47</text>

    <circle cx="60" cy="69" r="8" stroke="black" fill="transparent"/>
    <text x="60" y="69.5" class="t" alignment-baseline="middle" text-anchor="middle">57</text>

    <circle cx="70" cy="87" r="8" stroke="black" fill="transparent"/>
    <text x="70" y="87.5" class="t" alignment-baseline="middle" text-anchor="middle">67</text>

    <circle cx="80" cy="104" r="8" stroke="black" fill="transparent"/>
    <text x="80" y="104.5" class="t" alignment-baseline="middle" text-anchor="middle">78</text>

    <circle cx="90" cy="121" r="8" stroke="black" fill="transparent"/>
    <text x="90" y="121.5" class="t" alignment-baseline="middle" text-anchor="middle">90</text>

    <circle cx="100" cy="139" r="8" stroke="black" fill="transparent"/>
    <text x="100" y="139.5" class="t" alignment-baseline="middle" text-anchor="middle">103</text>

    <circle cx="110" cy="156" r="8" stroke="black" fill="transparent"/>
    <text x="110" y="156.5" class="t" alignment-baseline="middle" text-anchor="middle">112</text>

    <circle cx="120" cy="173" r="8" stroke="black" fill="transparent"/>
    <text x="120" y="173.5" class="t" alignment-baseline="middle" text-anchor="middle">116</text>

    <circle cx="130" cy="191" r="8" stroke="black" fill="transparent"/>
    <text x="130" y="191.5" class="t" alignment-baseline="middle" text-anchor="middle">119</text>

    <circle cx="40" cy="0" r="8" stroke="black" fill="transparent"/>
    <text x="40" y="0.5" class="t" alignment-baseline="middle" text-anchor="middle">12</text>

    <circle cx="50" cy="17" r="8" stroke="black" fill="transparent"/>
    <text x="50" y="17.5" class="t" alignment-baseline="middle" text-anchor="middle">25</text>

    <circle cx="60" cy="35" r="8" stroke="black" fill="transparent"/>
    <text x="60" y="35.5" class="t" alignment-baseline="middle" text-anchor="middle">37</text>

    <circle cx="70" cy="52" r="8" stroke="black" fill="transparent"/>
    <text x="70" y="52.5" class="t" alignment-baseline="middle" text-anchor="middle">48</text>

    <circle cx="80" cy="69" r="8" stroke="black" fill="transparent"/>
    <text x="80" y="69.5" class="t" alignment-baseline="middle" text-anchor="middle">58</text>

    <circle cx="90" cy="87" r="8" stroke="black" fill="transparent"/>
    <text x="90" y="87.5" class="t" alignment-baseline="middle" text-anchor="middle">68</text>

    <circle cx="100" cy="104" r="8" stroke="black" fill="transparent"/>
    <text x="100" y="104.5" class="t" alignment-baseline="middle" text-anchor="middle">79</text>

    <circle cx="110" cy="121" r="8" stroke="black" fill="transparent"/>
    <text x="110" y="121.5" class="t" alignment-baseline="middle" text-anchor="middle">91</text>

    <circle cx="120" cy="139" r="8" stroke="black" fill="transparent"/>
    <text x="120" y="139.5" class="t" alignment-baseline="middle" text-anchor="middle">104</text>

    <circle cx="130" cy="156" r="8" stroke="black" fill="transparent"/>
    <text x="130" y="156.5" class="t" alignment-baseline="middle" text-anchor="middle">113</text>

    <circle cx="140" cy="173" r="8" stroke="black" fill="transparent"/>
    <text x="140" y="173.5" class="t" alignment-baseline="middle" text-anchor="middle">117</text>

    <circle cx="60" cy="0" r="8" stroke="black" fill="transparent"/>
    <text x="60" y="0.5" class="t" alignment-baseline="middle" text-anchor="middle">13</text>

    <circle cx="70" cy="17" r="8" stroke="black" fill="transparent"/>
    <text x="70" y="17.5" class="t" alignment-baseline="middle" text-anchor="middle">26</text>

    <circle cx="80" cy="35" r="8" stroke="black" fill="transparent"/>
    <text x="80" y="35.5" class="t" alignment-baseline="middle" text-anchor="middle">38</text>

    <circle cx="90" cy="52" r="8" stroke="black" fill="transparent"/>
    <text x="90" y="52.5" class="t" alignment-baseline="middle" text-anchor="middle">49</text>

    <circle cx="100" cy="69" r="8" stroke="black" fill="transparent"/>
    <text x="100" y="69.5" class="t" alignment-baseline="middle" text-anchor="middle">59</text>

    <circle cx="110" cy="87" r="8" stroke="black" fill="transparent"/>
    <text x="110" y="87.5" class="t" alignment-baseline="middle" text-anchor="middle">69</text>

    <circle cx="120" cy="104" r="8" stroke="black" fill="transparent"/>
    <text x="120" y="104.5" class="t" alignment-baseline="middle" text-anchor="middle">80</text>

    <circle cx="130" cy="121" r="8" stroke="black" fill="transparent"/>
    <text x="130" y="121.5" class="t" alignment-baseline="middle" text-anchor="middle">92</text>

    <circle cx="140" cy="139" r="8" stroke="black" fill="transparent"/>
    <text x="140" y="139.5" class="t" alignment-baseline="middle" text-anchor="middle">105</text>

    <circle cx="150" cy="156" r="8" stroke="black" fill="transparent"/>
    <text x="150" y="156.5" class="t" alignment-baseline="middle" text-anchor="middle">114</text>

    <circle cx="80" cy="0" r="8" stroke="black" fill="transparent"/>
    <text x="80" y="0.5" class="t" alignment-baseline="middle" text-anchor="middle">14</text>

    <circle cx="90" cy="17" r="8" stroke="black" fill="transparent"/>
    <text x="90" y="17.5" class="t" alignment-baseline="middle" text-anchor="middle">27</text>

    <circle cx="100" cy="35" r="8" stroke="black" fill="transparent"/>
    <text x="100" y="35.5" class="t" alignment-baseline="middle" text-anchor="middle">39</text>

    <circle cx="110" cy="52" r="8" stroke="black" fill="transparent"/>
    <text x="110" y="52.5" class="t" alignment-baseline="middle" text-anchor="middle">50</text>

    <circle cx="120" cy="69" r="8" stroke="black" fill="transparent"/>
    <text x="120" y="69.5" class="t" alignment-baseline="middle" text-anchor="middle">60</text>

    <circle cx="130" cy="87" r="8" stroke="black" fill="transparent"/>
    <text x="130" y="87.5" class="t" alignment-baseline="middle" text-anchor="middle">70</text>

    <circle cx="140" cy="104" r="8" stroke="black" fill="transparent"/>
    <text x="140" y="104.5" class="t" alignment-baseline="middle" text-anchor="middle">81</text>

    <circle cx="150" cy="121" r="8" stroke="black" fill="transparent"/>
    <text x="150" y="121.5" class="t" alignment-baseline="middle" text-anchor="middle">93</text>

    <circle cx="160" cy="139" r="8" stroke="black" fill="transparent"/>
    <text x="160" y="139.5" class="t" alignment-baseline="middle" text-anchor="middle">106</text>

    <circle cx="100" cy="0" r="8" stroke="black" fill="transparent"/>
    <text x="100" y="0.5" class="t" alignment-baseline="middle" text-anchor="middle">15</text>

    <circle cx="110" cy="17" r="8" stroke="black" fill="transparent"/>
    <text x="110" y="17.5" class="t" alignment-baseline="middle" text-anchor="middle">28</text>

    <circle cx="120" cy="35" r="8" stroke="black" fill="transparent"/>
    <text x="120" y="35.5" class="t" alignment-baseline="middle" text-anchor="middle">40</text>

    <circle cx="130" cy="52" r="8" stroke="black" fill="transparent"/>
    <text x="130" y="52.5" class="t" alignment-baseline="middle" text-anchor="middle">51</text>

    <circle cx="140" cy="69" r="8" stroke="black" fill="transparent"/>
    <text x="140" y="69.5" class="t" alignment-baseline="middle" text-anchor="middle">61</text>

    <circle cx="150" cy="87" r="8" stroke="black" fill="transparent"/>
    <text x="150" y="87.5" class="t" alignment-baseline="middle" text-anchor="middle">71</text>

    <circle cx="160" cy="104" r="8" stroke="black" fill="transparent"/>
    <text x="160" y="104.5" class="t" alignment-baseline="middle" text-anchor="middle">82</text>

    <circle cx="170" cy="121" r="8" stroke="black" fill="transparent"/>
    <text x="170" y="121.5" class="t" alignment-baseline="middle" text-anchor="middle">94</text>

    <circle cx="120" cy="0" r="8" stroke="black" fill="transparent"/>
    <text x="120" y="0.5" class="t" alignment-baseline="middle" text-anchor="middle">16</text>

    <circle cx="130" cy="17" r="8" stroke="black" fill="transparent"/>
    <text x="130" y="17.5" class="t" alignment-baseline="middle" text-anchor="middle">29</text>

    <circle cx="140" cy="35" r="8" stroke="black" fill="transparent"/>
    <text x="140" y="35.5" class="t" alignment-baseline="middle" text-anchor="middle">41</text>

    <circle cx="150" cy="52" r="8" stroke="black" fill="transparent"/>
    <text x="150" y="52.5" class="t" alignment-baseline="middle" text-anchor="middle">52</text>

    <circle cx="160" cy="69" r="8" stroke="black" fill="transparent"/>
    <text x="160" y="69.5" class="t" alignment-baseline="middle" text-anchor="middle">62</text>

    <circle cx="170" cy="87" r="8" stroke="black" fill="transparent"/>
    <text x="170" y="87.5" class="t" alignment-baseline="middle" text-anchor="middle">72</text>

    <circle cx="180" cy="104" r="8" stroke="black" fill="transparent"/>
    <text x="180" y="104.5" class="t" alignment-baseline="middle" text-anchor="middle">83</text>

    <circle cx="140" cy="0" r="8" stroke="black" fill="transparent"/>
    <text x="140" y="0.5" class="t" alignment-baseline="middle" text-anchor="middle">17</text>

    <circle cx="150" cy="17" r="8" stroke="black" fill="transparent"/>
    <text x="150" y="17.5" class="t" alignment-baseline="middle" text-anchor="middle">30</text>

    <circle cx="160" cy="35" r="8" stroke="black" fill="transparent"/>
    <text x="160" y="35.5" class="t" alignment-baseline="middle" text-anchor="middle">42</text>

    <circle cx="170" cy="52" r="8" stroke="black" fill="transparent"/>
    <text x="170" y="52.5" class="t" alignment-baseline="middle" text-anchor="middle">53</text>

    <circle cx="180" cy="69" r="8" stroke="black" fill="transparent"/>
    <text x="180" y="69.5" class="t" alignment-baseline="middle" text-anchor="middle">63</text>

    <circle cx="190" cy="87" r="8" stroke="black" fill="transparent"/>
    <text x="190" y="87.5" class="t" alignment-baseline="middle" text-anchor="middle">73</text>

    <circle cx="160" cy="0" r="8" stroke="black" fill="transparent"/>
    <text x="160" y="0.5" class="t" alignment-baseline="middle" text-anchor="middle">18</text>

    <circle cx="170" cy="17" r="8" stroke="black" fill="transparent"/>
    <text x="170" y="17.5" class="t" alignment-baseline="middle" text-anchor="middle">31</text>

    <circle cx="180" cy="35" r="8" stroke="black" fill="transparent"/>
    <text x="180" y="35.5" class="t" alignment-baseline="middle" text-anchor="middle">43</text>

    <circle cx="190" cy="52" r="8" stroke="black" fill="transparent"/>
    <text x="190" y="52.5" class="t" alignment-baseline="middle" text-anchor="middle">54</text>

    <circle cx="200" cy="69" r="8" stroke="black" fill="transparent"/>
    <text x="200" y="69.5" class="t" alignment-baseline="middle" text-anchor="middle">64</text>

    <circle cx="180" cy="0" r="8" stroke="black" fill="transparent"/>
    <text x="180" y="0.5" class="t" alignment-baseline="middle" text-anchor="middle">19</text>

    <circle cx="190" cy="17" r="8" stroke="black" fill="transparent"/>
    <text x="190" y="17.5" class="t" alignment-baseline="middle" text-anchor="middle">32</text>

    <circle cx="200" cy="35" r="8" stroke="black" fill="transparent"/>
    <text x="200" y="35.5" class="t" alignment-baseline="middle" text-anchor="middle">44</text>

    <circle cx="210" cy="52" r="8" stroke="black" fill="transparent"/>
    <text x="210" y="52.5" class="t" alignment-baseline="middle" text-anchor="middle">55</text>

    <circle cx="200" cy="0" r="8" stroke="black" fill="transparent"/>
    <text x="200" y="0.5" class="t" alignment-baseline="middle" text-anchor="middle">20</text>

    <circle cx="210" cy="17" r="8" stroke="black" fill="transparent"/>
    <text x="210" y="17.5" class="t" alignment-baseline="middle" text-anchor="middle">33</text>

    <circle cx="220" cy="35" r="8" stroke="black" fill="transparent"/>
    <text x="220" y="35.5" class="t" alignment-baseline="middle" text-anchor="middle">45</text>

    <circle cx="220" cy="0" r="8" stroke="black" fill="transparent"/>
    <text x="220" y="0.5" class="t" alignment-baseline="middle" text-anchor="middle">21</text>

    <circle cx="230" cy="17" r="8" stroke="black" fill="transparent"/>
    <text x="230" y="17.5" class="t" alignment-baseline="middle" text-anchor="middle">34</text>

    <circle cx="240" cy="0" r="8" stroke="black" fill="transparent"/>
    <text x="240" y="0.5" class="t" alignment-baseline="middle" text-anchor="middle">22</text>

    <circle cx="30" cy="87" r="8" stroke="black" fill="transparent"/>
    <text x="30" y="87.5" class="t" alignment-baseline="middle" text-anchor="middle">65</text>

    <circle cx="40" cy="104" r="8" stroke="black" fill="transparent"/>
    <text x="40" y="104.5" class="t" alignment-baseline="middle" text-anchor="middle">76</text>

    <circle cx="50" cy="121" r="8" stroke="black" fill="transparent"/>
    <text x="50" y="121.5" class="t" alignment-baseline="middle" text-anchor="middle">88</text>

    <circle cx="60" cy="139" r="8" stroke="black" fill="transparent"/>
    <text x="60" y="139.5" class="t" alignment-baseline="middle" text-anchor="middle">101</text>

    <circle cx="20" cy="104" r="8" stroke="black" fill="transparent"/>
    <text x="20" y="104.5" class="t" alignment-baseline="middle" text-anchor="middle">75</text>

    <circle cx="30" cy="121" r="8" stroke="black" fill="transparent"/>
    <text x="30" y="121.5" class="t" alignment-baseline="middle" text-anchor="middle">87</text>

    <circle cx="40" cy="139" r="8" stroke="black" fill="transparent"/>
    <text x="40" y="139.5" class="t" alignment-baseline="middle" text-anchor="middle">100</text>

    <circle cx="10" cy="121" r="8" stroke="black" fill="transparent"/>
    <text x="10" y="121.5" class="t" alignment-baseline="middle" text-anchor="middle">86</text>

    <circle cx="20" cy="139" r="8" stroke="black" fill="transparent"/>
    <text x="20" y="139.5" class="t" alignment-baseline="middle" text-anchor="middle">99</text>

    <circle cx="0" cy="139" r="8" stroke="black" fill="transparent"/>
    <text x="0" y="139.5" class="t" alignment-baseline="middle" text-anchor="middle">98</text>

    <circle cx="90" cy="-17" r="8" stroke="black" fill="transparent"/>
    <text x="90" y="-16.5" class="t" alignment-baseline="middle" text-anchor="middle">6</text>

    <circle cx="110" cy="-17" r="8" stroke="black" fill="transparent"/>
    <text x="110" y="-16.5" class="t" alignment-baseline="middle" text-anchor="middle">7</text>

    <circle cx="100" cy="-35" r="8" stroke="black" fill="transparent"/>
    <text x="100" y="-34.5" class="t" alignment-baseline="middle" text-anchor="middle">3</text>

    <circle cx="130" cy="-17" r="8" stroke="black" fill="transparent"/>
    <text x="130" y="-16.5" class="t" alignment-baseline="middle" text-anchor="middle">8</text>

    <circle cx="120" cy="-35" r="8" stroke="black" fill="transparent"/>
    <text x="120" y="-34.5" class="t" alignment-baseline="middle" text-anchor="middle">4</text>

    <circle cx="110" cy="-52" r="8" stroke="black" fill="transparent"/>
    <text x="110" y="-51.5" class="t" alignment-baseline="middle" text-anchor="middle">1</text>

    <circle cx="150" cy="-17" r="8" stroke="black" fill="transparent"/>
    <text x="150" y="-16.5" class="t" alignment-baseline="middle" text-anchor="middle">9</text>

    <circle cx="140" cy="-35" r="8" stroke="black" fill="transparent"/>
    <text x="140" y="-34.5" class="t" alignment-baseline="middle" text-anchor="middle">5</text>

    <circle cx="130" cy="-52" r="8" stroke="black" fill="transparent"/>
    <text x="130" y="-51.5" class="t" alignment-baseline="middle" text-anchor="middle">2</text>

    <circle cx="120" cy="-69" r="8" stroke="black" fill="transparent"/>
    <text x="120" y="-68.5" class="t" alignment-baseline="middle" text-anchor="middle">0</text>

    <circle cx="180" cy="139" r="8" stroke="black" fill="transparent"/>
    <text x="180" y="139.5" class="t" alignment-baseline="middle" text-anchor="middle">107</text>

    <circle cx="190" cy="121" r="8" stroke="black" fill="transparent"/>
    <text x="190" y="121.5" class="t" alignment-baseline="middle" text-anchor="middle">95</text>

    <circle cx="200" cy="139" r="8" stroke="black" fill="transparent"/>
    <text x="200" y="139.5" class="t" alignment-baseline="middle" text-anchor="middle">108</text>

    <circle cx="200" cy="104" r="8" stroke="black" fill="transparent"/>
    <text x="200" y="104.5" class="t" alignment-baseline="middle" text-anchor="middle">84</text>

    <circle cx="210" cy="121" r="8" stroke="black" fill="transparent"/>
    <text x="210" y="121.5" class="t" alignment-baseline="middle" text-anchor="middle">96</text>

    <circle cx="220" cy="139" r="8" stroke="black" fill="transparent"/>
    <text x="220" y="139.5" class="t" alignment-baseline="middle" text-anchor="middle">109</text>

    <circle cx="210" cy="87" r="8" stroke="black" fill="transparent"/>
    <text x="210" y="87.5" class="t" alignment-baseline="middle" text-anchor="middle">74</text>

    <circle cx="220" cy="104" r="8" stroke="black" fill="transparent"/>
    <text x="220" y="104.5" class="t" alignment-baseline="middle" text-anchor="middle">85</text>

    <circle cx="230" cy="121" r="8" stroke="black" fill="transparent"/>
    <text x="230" y="121.5" class="t" alignment-baseline="middle" text-anchor="middle">97</text>

    <circle cx="240" cy="139" r="8" stroke="black" fill="transparent"/>
    <text x="240" y="139.5" class="t" alignment-baseline="middle" text-anchor="middle">110</text>

    </svg>