<?xml version="1.0" encoding="UTF-8"?>
    <svg viewBox="-10 -80 300 300" xmlns="http://www.w3.org/2000/svg" version="1.1">
        <style> .t { font: italic 6px sans-serif; } </style>
            <circle cx="0" cy="0" r="8" stroke="black" fill="transparent"/>
    <text x="0" y="0.5" class="t" alignment-baseline="middle" text-anchor="middle">3</text>

    <circle cx="10" cy="17" r="8" stroke="black" fill="transparent"/>
    <text x="10" y="17.5" class="t" alignment-baseline="middle" text-anchor="middle">10</text>

    <circle cx="20" cy="35" r="8" stroke="black" fill="transparent"/>
    <text x="20" y="35.5" class="t" alignment-baseline="middle" text-anchor="middle">16</text>

    <circle cx="30" cy="52" r="8" stroke="black" fill="transparent"/>
    <text x="30" y="52.5" class="t" alignment-baseline="middle" text-anchor="middle">22</text>

    <circle cx="40" cy="69" r="8" stroke="black" fill="transparent"/>
    <text x="40" y="69.5" class="t" alignment-baseline="middle" text-anchor="middle">29</text>

    <circle cx="50" cy="87" r="8" stroke="black" fill="transparent"/>
    <text x="50" y="87.5" class="t" alignment-baseline="middle" text-anchor="middle">34</text>

    <circle cx="60" cy="104" r="8" stroke="black" fill="transparent"/>
    <text x="60" y="104.5" class="t" alignment-baseline="middle" text-anchor="middle">36</text>

    <circle cx="20" cy="0" r="8" stroke="black" fill="transparent"/>
    <text x="20" y="0.5" class="t" alignment-baseline="middle" text-anchor="middle">4</text>

    <circle cx="30" cy="17" r="8" stroke="black" fill="transparent"/>
    <text x="30" y="17.5" class="t" alignment-baseline="middle" text-anchor="middle">11</text>

    <circle cx="40" cy="35" r="8" stroke="black" fill="transparent"/>
    <text x="40" y="35.5" class="t" alignment-baseline="middle" text-anchor="middle">17</text>

    <circle cx="50" cy="52" r="8" stroke="black" fill="transparent"/>
    <text x="50" y="52.5" class="t" alignment-baseline="middle" text-anchor="middle">23</text>

    <circle cx="60" cy="69" r="8" stroke="black" fill="transparent"/>
    <text x="60" y="69.5" class="t" alignment-baseline="middle" text-anchor="middle">30</text>

    <circle cx="70" cy="87" r="8" stroke="black" fill="transparent"/>
    <text x="70" y="87.5" class="t" alignment-baseline="middle" text-anchor="middle">35</text>

    <circle cx="40" cy="0" r="8" stroke="black" fill="transparent"/>
    <text x="40" y="0.5" class="t" alignment-baseline="middle" text-anchor="middle">5</text>

    <circle cx="50" cy="17" r="8" stroke="black" fill="transparent"/>
    <text x="50" y="17.5" class="t" alignment-baseline="middle" text-anchor="middle">12</text>

    <circle cx="60" cy="35" r="8" stroke="black" fill="transparent"/>
    <text x="60" y="35.5" class="t" alignment-baseline="middle" text-anchor="middle">18</text>

    <circle cx="70" cy="52" r="8" stroke="black" fill="transparent"/>
    <text x="70" y="52.5" class="t" alignment-baseline="middle" text-anchor="middle">24</text>

    <circle cx="80" cy="69" r="8" stroke="black" fill="transparent"/>
    <text x="80" y="69.5" class="t" alignment-baseline="middle" text-anchor="middle">31</text>

    <circle cx="60" cy="0" r="8" stroke="black" fill="transparent"/>
    <text x="60" y="0.5" class="t" alignment-baseline="middle" text-anchor="middle">6</text>

    <circle cx="70" cy="17" r="8" stroke="black" fill="transparent"/>
    <text x="70" y="17.5" class="t" alignment-baseline="middle" text-anchor="middle">13</text>

    <circle cx="80" cy="35" r="8" stroke="black" fill="transparent"/>
    <text x="80" y="35.5" class="t" alignment-baseline="middle" text-anchor="middle">19</text>

    <circle cx="90" cy="52" r="8" stroke="black" fill="transparent"/>
    <text x="90" y="52.5" class="t" alignment-baseline="middle" text-anchor="middle">25</text>

    <circle cx="80" cy="0" r="8" stroke="black" fill="transparent"/>
    <text x="80" y="0.5" class="t" alignment-baseline="middle" text-anchor="middle">7</text>

    <circle cx="90" cy="17" r="8" stroke="black" fill="transparent"/>
    <text x="90" y="17.5" class="t" alignment-baseline="middle" text-anchor="middle">14</text>

    <circle cx="100" cy="35" r="8" stroke="black" fill="transparent"/>
    <text x="100" y="35.5" class="t" alignment-baseline="middle" text-anchor="middle">20</text>

    <circle cx="100" cy="0" r="8" stroke="black" fill="transparent"/>
    <text x="100" y="0.5" class="t" alignment-baseline="middle" text-anchor="middle">8</text>

    <circle cx="110" cy="17" r="8" stroke="black" fill="transparent"/>
    <text x="110" y="17.5" class="t" alignment-baseline="middle" text-anchor="middle">15</text>

    <circle cx="120" cy="0" r="8" stroke="black" fill="transparent"/>
    <text x="120" y="0.5" class="t" alignment-baseline="middle" text-anchor="middle">9</text>

    <circle cx="10" cy="52" r="8" stroke="black" fill="transparent"/>
    <text x="10" y="52.5" class="t" alignment-baseline="middle" text-anchor="middle">21</text>

    <circle cx="20" cy="69" r="8" stroke="black" fill="transparent"/>
    <text x="20" y="69.5" class="t" alignment-baseline="middle" text-anchor="middle">28</text>

    <circle cx="0" cy="69" r="8" stroke="black" fill="transparent"/>
    <text x="0" y="69.5" class="t" alignment-baseline="middle" text-anchor="middle">27</text>

    <circle cx="50" cy="-17" r="8" stroke="black" fill="transparent"/>
    <text x="50" y="-16.5" class="t" alignment-baseline="middle" text-anchor="middle">1</text>

    <circle cx="70" cy="-17" r="8" stroke="black" fill="transparent"/>
    <text x="70" y="-16.5" class="t" alignment-baseline="middle" text-anchor="middle">2</text>

    <circle cx="60" cy="-35" r="8" stroke="black" fill="transparent"/>
    <text x="60" y="-34.5" class="t" alignment-baseline="middle" text-anchor="middle">0</text>

    <circle cx="100" cy="69" r="8" stroke="black" fill="transparent"/>
    <text x="100" y="69.5" class="t" alignment-baseline="middle" text-anchor="middle">32</text>

    <circle cx="110" cy="52" r="8" stroke="black" fill="transparent"/>
    <text x="110" y="52.5" class="t" alignment-baseline="middle" text-anchor="middle">26</text>

    <circle cx="120" cy="69" r="8" stroke="black" fill="transparent"/>
    <text x="120" y="69.5" class="t" alignment-baseline="middle" text-anchor="middle">33</text>

    </svg>